<?xml version="1.0" standalone="no"?>
<!DOCTYPE svg PUBLIC "-//W3C//DTD SVG 20010904//EN"
 "http://www.w3.org/TR/2001/REC-SVG-20010904/DTD/svg10.dtd">
<svg version="1.0" xmlns="http://www.w3.org/2000/svg"
 width="522.000000pt" height="522.000000pt" viewBox="0 0 522.000000 522.000000"
 preserveAspectRatio="xMidYMid meet">
<metadata>
Created by potrace 1.11, written by Peter Selinger 2001-2013
</metadata>
<g transform="translate(0.000000,522.000000) scale(0.100000,-0.100000)"
fill="#000000" stroke="none">
<path d="M2676 4053 c-1 -1 -29 -5 -62 -7 -32 -3 -84 -10 -114 -16 -133 -24
-196 -29 -565 -45 -160 -7 -260 -19 -375 -44 -103 -23 -218 -56 -285 -83 -80
-33 -199 -90 -215 -104 -8 -7 -19 -14 -25 -15 -15 -4 -60 -30 -125 -71 -32
-20 -61 -34 -64 -31 -3 3 -8 -2 -12 -11 -3 -9 -10 -16 -16 -16 -9 0 -90 -57
-178 -126 -25 -20 -58 -45 -74 -57 -127 -93 -302 -261 -331 -316 -8 -17 -20
-31 -25 -31 -6 0 -10 -5 -10 -10 0 -6 -5 -16 -10 -23 -35 -41 -90 -123 -110
-164 -13 -27 -28 -57 -33 -68 -36 -71 -47 -225 -22 -310 19 -68 67 -193 87
-230 18 -33 181 -195 197 -195 5 0 11 -4 13 -9 6 -16 71 -91 112 -131 68 -64
117 -104 206 -168 47 -34 96 -70 110 -81 14 -10 50 -32 80 -49 30 -16 78 -43
105 -59 134 -78 376 -178 484 -198 94 -18 205 -35 258 -40 34 -3 72 -8 85 -11
13 -3 52 -7 88 -9 36 -3 74 -7 85 -9 19 -3 90 -13 145 -20 14 -2 45 -7 70 -10
25 -4 56 -9 70 -11 41 -5 223 -34 250 -40 73 -15 142 -26 195 -31 33 -3 74 -8
90 -10 31 -4 55 -7 185 -22 158 -18 506 -1 645 32 43 10 232 47 260 50 27 4
96 21 260 63 33 8 67 16 75 18 8 2 16 4 18 5 1 2 5 3 10 4 4 1 23 6 42 10 19
5 41 12 50 16 32 17 123 50 136 50 8 0 14 5 14 10 0 6 4 10 9 10 12 0 125 55
171 82 245 149 362 270 468 481 97 197 114 255 114 401 0 78 -26 180 -72 291
-10 22 -23 58 -29 80 -33 110 -86 191 -210 320 -32 33 -78 87 -103 120 -49 64
-141 155 -223 221 -115 92 -352 223 -565 313 -58 25 -109 48 -115 52 -11 7
-169 60 -182 61 -5 0 -19 5 -33 10 -32 12 -237 68 -270 74 -14 2 -46 9 -71 15
-26 6 -55 12 -65 14 -11 2 -19 4 -19 5 0 2 -19 6 -65 14 -19 3 -46 8 -60 11
-14 2 -47 9 -75 15 -27 5 -61 12 -75 14 -14 3 -25 5 -25 6 0 6 -272 19 -279
13z"/>
</g>
</svg>
